<?xml version="1.0" encoding="UTF-8"?>
<svg xmlns="http://www.w3.org/2000/svg" viewBox="0 0 186.82 264.64">
  <g style="isolation: isolate;">
    <g id="Layer_2" data-name="Layer 2">
      <g id="Graphics">
        <g>
          <path d="m175.06,122.21L106.55,7.65C103.9,2.93,98.91,0,93.48,0c-5.42,0-10.41,2.92-13.06,7.65L12.08,121.45C4.07,136.54,0,152.42,0,168.65c-.02,52.91,41.87,95.97,93.37,95.99,51.52,0,93.43-43.03,93.45-95.91,0-20.27-6.71-36.26-11.76-46.52Zm-81.68,127.49c-20.84,0-40.48-8.4-55.3-23.64-14.93-15.34-23.14-35.73-23.13-57.4,0-13.77,3.48-27.29,10.34-40.19L93.51,14.96l68.14,113.85c4.39,8.92,10.23,22.76,10.22,39.91-.02,44.65-35.23,80.97-78.5,80.97Z" style="fill: #bbc7db; mix-blend-mode: multiply; stroke-width: 0px;"/>
          <path d="m136.47,142.9l-35.68-59.03c-1.5-2.65-4.3-4.28-7.34-4.28h0c-3.04,0-5.84,1.62-7.34,4.27l-35.96,59.31c-4.49,8.35-6.77,16.96-6.77,25.55-.01,28.04,22.42,50.85,50.01,50.86h.03c13.38,0,25.96-5.3,35.41-14.93,9.42-9.6,14.61-22.34,14.61-35.88,0-10.69-3.97-19.88-6.97-25.86Z" style="fill: #001e6f; stroke-width: 0px;"/>
        </g>
      </g>
    </g>
  </g>
</svg>