<?xml version="1.0" encoding="UTF-8"?>
<svg xmlns="http://www.w3.org/2000/svg" viewBox="0 0 245.64 260.96">
  <g style="isolation: isolate;">
    <g id="Layer_2" data-name="Layer 2">
      <g id="Graphics">
        <g>
          <path d="m220.46,260.96H25.19C11.29,260.96.02,249.69.02,235.79s11.28-25.18,25.18-25.18h195.27c13.9,0,25.18,11.27,25.18,25.18s-11.28,25.18-25.18,25.18Z" style="fill: #d3d0e2; mix-blend-mode: multiply; stroke-width: 0px;"/>
          <path d="m227.22,182.37H18.43C8.25,182.37.01,174.12.01,163.95s8.24-18.42,18.41-18.42h208.79c10.18,0,18.41,8.25,18.41,18.42s-8.24,18.42-18.41,18.42Z" style="fill: #d3d0e2; mix-blend-mode: multiply; stroke-width: 0px;"/>
          <path d="m231.51,117.28H14.14C6.34,117.28,0,110.96,0,103.16s6.33-14.12,14.13-14.12h217.38c7.8,0,14.13,6.33,14.13,14.12s-6.33,14.12-14.13,14.12Z" style="fill: #d3d0e2; mix-blend-mode: multiply; stroke-width: 0px;"/>
          <path d="m235.5,60.79H10.14c-5.6,0-10.14-4.53-10.14-10.13s4.54-10.13,10.14-10.13h225.36c5.6,0,10.14,4.53,10.14,10.13s-4.54,10.13-10.14,10.13Z" style="fill: #001e6f; stroke-width: 0px;"/>
          <path d="m239.46,12.28H6.15C2.77,12.28.01,9.53.01,6.14S2.77,0,6.15,0h233.31c3.38,0,6.14,2.75,6.14,6.14s-2.76,6.14-6.14,6.14Z" style="fill: #d3d0e2; mix-blend-mode: multiply; stroke-width: 0px;"/>
        </g>
      </g>
    </g>
  </g>
</svg>