<?xml version="1.0" encoding="UTF-8"?>
<svg id="Layer_2" data-name="Layer 2" xmlns="http://www.w3.org/2000/svg" viewBox="0 0 121.98 354">
  <g id="Type">
    <path d="m121.98,347.15c0,3.78-3.07,6.85-6.85,6.85H6.85c-3.78,0-6.85-3.07-6.85-6.85,0-2.97,1.9-5.5,4.54-6.45,1.17-33.24,4.23-74.59,6.7-108.03l.08-1.05c1.98-26.9,3.69-50.13,3.69-59.59,0-20.47-1.92-27.87-3.77-35.03-1.82-7.03-3.54-13.67-3.54-29.37,0-31.61,15.83-47.42,22.59-54.17l1.57-1.6c3.45-3.64,5.28-7.75,5.88-13.29.71-6.52.77-8.18.77-9.97v-2.29c0-.85,0-1.86.03-3.17C38.53,10.43,48.6,0,60.97,0c12.39,0,22.46,10.43,22.46,23.24.03,1.32.04,2.4.04,3.35v.9c0,2.19,0,4.08.76,11.08.6,5.56,2.43,9.67,5.92,13.34l1.52,1.54c6.74,6.73,22.59,22.53,22.59,54.17,0,15.68-1.72,22.32-3.53,29.36-1.86,7.17-3.77,14.58-3.77,35.04,0,9.55,1.74,33.12,3.76,60.41l.03.44c2.46,33.38,5.5,74.64,6.68,107.82,2.65.95,4.54,3.48,4.54,6.45Zm-18.26-6.85c-1.19-32.93-4.21-73.7-6.65-106.72-2.13-28.74-3.8-51.44-3.8-61.55,0-22.18,2.13-30.44,4.2-38.43,1.6-6.23,3.1-12.05,3.1-25.97,0-25.96-12.55-38.48-18.58-44.5l-1.7-1.73c-5.6-5.89-8.74-12.86-9.67-21.36-.76-7.08-.77-8.27-.79-11.45,0-1.25-.02-2.82-.08-5.25v-.1c0-5.26-3.92-9.54-8.73-9.54s-8.77,4.28-8.77,9.54v.1c-.05,1.84-.06,3.17-.06,4.32-.02,3.22-.03,5.17-.81,12.37-.92,8.5-4.07,15.46-9.62,21.31l-1.74,1.77c-6.06,6.05-18.6,18.58-18.6,44.51,0,13.92,1.5,19.74,3.09,25.91,2.08,8.02,4.22,16.28,4.22,38.49,0,10.1-1.68,32.77-3.8,61.48-2.44,33.05-5.46,73.85-6.65,106.79h85.46Z" style="fill: #001a70; stroke-width: 0px;"/>
  </g>
</svg>