<?xml version="1.0" encoding="UTF-8"?>
<svg xmlns="http://www.w3.org/2000/svg" viewBox="0 0 260.81 260.82">
  <g style="isolation: isolate;">
    <g id="Layer_2" data-name="Layer 2">
      <g id="Graphics">
        <g id="Group_448" data-name="Group 448">
          <path id="Path_154" data-name="Path 154" d="m130.4,0C58.39,0,0,58.38,0,130.41s58.38,130.4,130.4,130.4,130.41-58.39,130.41-130.4S202.43,0,130.4,0m.01,248.54c-65.14,0-118.14-52.99-118.14-118.13S65.28,12.28,130.42,12.28s118.12,52.99,118.12,118.13-52.98,118.13-118.12,118.13" style="fill: #d3d6e5; mix-blend-mode: multiply; stroke-width: 0px;"/>
          <path id="Path_155" data-name="Path 155" d="m130.42,24.55c-58.38,0-105.86,47.49-105.86,105.86s47.49,105.85,105.86,105.85,105.84-47.48,105.84-105.86S188.79,24.55,130.42,24.55m-.01,199.44c-51.69,0-93.59-41.9-93.59-93.59s41.9-93.59,93.59-93.59,93.59,41.9,93.59,93.59-41.9,93.59-93.59,93.59" style="fill: #d3d6e5; mix-blend-mode: multiply; stroke-width: 0px;"/>
          <path id="Path_156" data-name="Path 156" d="m130.41,49.1c-44.91,0-81.32,36.41-81.32,81.31s36.41,81.31,81.32,81.31,81.32-36.4,81.32-81.31-36.41-81.31-81.32-81.31m0,150.35c-38.13,0-69.04-30.91-69.04-69.04s30.91-69.04,69.04-69.04,69.04,30.91,69.04,69.04-30.91,69.04-69.04,69.04" style="fill: #011e6e; stroke-width: 0px;"/>
          <path id="Path_157" data-name="Path 157" d="m130.41,73.64c-31.35,0-56.76,25.41-56.76,56.76s25.41,56.76,56.76,56.76,56.76-25.41,56.76-56.76c0-31.35-25.41-56.77-56.76-56.77h0m0,101.26c-24.57,0-44.49-19.92-44.49-44.49,0-24.57,19.92-44.49,44.49-44.49,24.57,0,44.49,19.92,44.49,44.49,0,24.57-19.92,44.49-44.49,44.49" style="fill: #d3d6e5; mix-blend-mode: multiply; stroke-width: 0px;"/>
          <path id="Path_158" data-name="Path 158" d="m130.44,98.19c-17.79,0-32.22,14.43-32.22,32.22,0,17.79,14.43,32.22,32.22,32.22,17.79,0,32.22-14.42,32.22-32.21,0-17.79-14.42-32.22-32.22-32.22h0m0,52.16c-11.01,0-19.94-8.93-19.94-19.94,0-11.01,8.93-19.94,19.94-19.94,11.01,0,19.94,8.93,19.94,19.94h0c0,11.02-8.93,19.94-19.94,19.94h0" style="fill: #cdd2e0; mix-blend-mode: multiply; stroke-width: 0px;"/>
          <path id="Path_159" data-name="Path 159" d="m138.11,130.4c0,4.24-3.43,7.67-7.67,7.67-4.24,0-7.67-3.43-7.67-7.67s3.43-7.67,7.67-7.67h0c4.23,0,7.67,3.43,7.67,7.67" style="fill: #cdd2e0; mix-blend-mode: multiply; stroke-width: 0px;"/>
        </g>
      </g>
    </g>
  </g>
</svg>